<svg width="539" height="125" viewBox="0 0 539 125" fill="" xmlns="http://www.w3.org/2000/svg">
<path d="M35.6371 28.6364V43.1818H1.00078L1.0007 28.6364H35.6371ZM1.0007 11.9091H20.3643V77C20.3643 78.7879 20.6371 80.1818 21.1825 81.1818C21.728 82.1515 22.4855 82.8333 23.4552 83.2273C24.4552 83.6212 25.6068 83.8182 26.9098 83.8182C27.8189 83.8182 28.728 83.7424 29.6371 83.5909C30.5462 83.4091 31.2431 83.2727 31.728 83.1818L34.7734 97.5909C33.8037 97.8939 32.4401 98.2424 30.6825 98.6364C28.9249 99.0606 26.7886 99.3182 24.2734 99.4091C19.6068 99.5909 15.5158 98.9697 12.0007 97.5455C8.51585 96.1212 5.80373 93.9091 3.86434 90.9091C1.92494 87.9091 0.970396 84.1212 1.0007 79.5455V11.9091Z" fill="#262626"/>
<path d="M70.9098 99.8182C63.8492 99.8182 57.7431 98.3182 52.5916 95.3182C47.4704 92.2879 43.5158 88.0758 40.728 82.6818C37.9401 77.2576 36.5462 70.9697 36.5462 63.8182C36.5462 56.6061 37.9401 50.303 40.728 44.9091C43.5158 39.4849 47.4704 35.2727 52.5916 32.2727C57.7431 29.2424 63.8492 27.7273 70.9098 27.7273C77.9704 27.7273 84.0613 29.2424 89.1825 32.2727C94.334 35.2727 98.3037 39.4849 101.092 44.9091C103.879 50.303 105.273 56.6061 105.273 63.8182C105.273 70.9697 103.879 77.2576 101.092 82.6818C98.3037 88.0758 94.334 92.2879 89.1825 95.3182C84.0613 98.3182 77.9704 99.8182 70.9098 99.8182ZM71.0007 84.8182C74.2128 84.8182 76.8946 83.9091 79.0462 82.0909C81.1977 80.2424 82.8189 77.7273 83.9098 74.5455C85.031 71.3636 85.5916 67.7424 85.5916 63.6818C85.5916 59.6212 85.031 56 83.9098 52.8182C82.8189 49.6364 81.1977 47.1212 79.0462 45.2727C76.8946 43.4242 74.2128 42.5 71.0007 42.5C67.7583 42.5 65.031 43.4242 62.8189 45.2727C60.6371 47.1212 58.9855 49.6364 57.8643 52.8182C56.7734 56 56.228 59.6212 56.228 63.6818C56.228 67.7424 56.7734 71.3636 57.8643 74.5455C58.9855 77.7273 60.6371 80.2424 62.8189 82.0909C65.031 83.9091 67.7583 84.8182 71.0007 84.8182Z" fill="#262626"/>
<path d="M110.864 124.636V28.6364H129.955V40.3636H130.819C131.667 38.4849 132.895 36.5758 134.501 34.6364C136.137 32.6667 138.258 31.0303 140.864 29.7273C143.501 28.3939 146.773 27.7273 150.683 27.7273C155.773 27.7273 160.47 29.0606 164.773 31.7273C169.076 34.3636 172.516 38.3485 175.092 43.6818C177.667 48.9849 178.955 55.6364 178.955 63.6364C178.955 71.4242 177.698 78 175.183 83.3636C172.698 88.697 169.304 92.7424 165.001 95.5C160.728 98.2273 155.94 99.5909 150.637 99.5909C146.879 99.5909 143.683 98.9697 141.046 97.7273C138.44 96.4849 136.304 94.9243 134.637 93.0455C132.97 91.1364 131.698 89.2121 130.819 87.2727H130.228V124.636H110.864ZM129.819 63.5455C129.819 67.697 130.395 71.3182 131.546 74.4091C132.698 77.5 134.364 79.9091 136.546 81.6364C138.728 83.3333 141.379 84.1818 144.501 84.1818C147.652 84.1818 150.319 83.3182 152.501 81.5909C154.683 79.8333 156.334 77.4091 157.455 74.3182C158.607 71.197 159.183 67.6061 159.183 63.5455C159.183 59.5152 158.622 55.9697 157.501 52.9091C156.379 49.8485 154.728 47.4546 152.546 45.7273C150.364 44 147.683 43.1364 144.501 43.1364C141.349 43.1364 138.683 43.9697 136.501 45.6364C134.349 47.303 132.698 49.6667 131.546 52.7273C130.395 55.7879 129.819 59.3939 129.819 63.5455Z" fill="#262626"/>
<path d="M239.955 48.5455L222.228 49.6364C221.925 48.1212 221.273 46.7576 220.273 45.5455C219.273 44.303 217.955 43.3182 216.319 42.5909C214.713 41.8333 212.789 41.4546 210.546 41.4546C207.546 41.4546 205.016 42.0909 202.955 43.3636C200.895 44.6061 199.864 46.2727 199.864 48.3636C199.864 50.0303 200.531 51.4394 201.864 52.5909C203.198 53.7424 205.486 54.6667 208.728 55.3636L221.364 57.9091C228.152 59.303 233.213 61.5455 236.546 64.6364C239.879 67.7273 241.546 71.7879 241.546 76.8182C241.546 81.3939 240.198 85.4091 237.501 88.8636C234.834 92.3182 231.167 95.0152 226.501 96.9546C221.864 98.8636 216.516 99.8182 210.455 99.8182C201.213 99.8182 193.849 97.8939 188.364 94.0455C182.91 90.1667 179.713 84.8939 178.773 78.2273L197.819 77.2273C198.395 80.0455 199.789 82.197 202.001 83.6818C204.213 85.1364 207.046 85.8636 210.501 85.8636C213.895 85.8636 216.622 85.2121 218.683 83.9091C220.773 82.5758 221.834 80.8636 221.864 78.7727C221.834 77.0152 221.092 75.5758 219.637 74.4546C218.183 73.303 215.94 72.4243 212.91 71.8182L200.819 69.4091C194.001 68.0455 188.925 65.6818 185.592 62.3182C182.289 58.9546 180.637 54.6667 180.637 49.4546C180.637 44.9697 181.849 41.1061 184.273 37.8636C186.728 34.6212 190.167 32.1212 194.592 30.3636C199.046 28.6061 204.258 27.7273 210.228 27.7273C219.046 27.7273 225.986 29.5909 231.046 33.3182C236.137 37.0455 239.107 42.1212 239.955 48.5455Z" fill="#262626"/>
<path d="M280.637 28.6364V43.1818H246.376V28.6364H280.637ZM246.376 11.9091H265.739V77C265.739 78.7879 266.012 80.1818 266.557 81.1818C267.103 82.1515 267.861 82.8333 268.83 83.2273C269.83 83.6212 270.982 83.8182 272.285 83.8182C273.194 83.8182 274.103 83.7424 275.012 83.5909C275.921 83.4091 276.618 83.2727 277.103 83.1818L280.148 97.5909C279.179 97.8939 277.815 98.2424 276.057 98.6364C274.3 99.0606 272.164 99.3182 269.648 99.4091C264.982 99.5909 260.891 98.9697 257.376 97.5455C253.891 96.1212 251.179 93.9091 249.239 90.9091C247.3 87.9091 246.345 84.1212 246.376 79.5455V11.9091Z" fill="#262626"/>
<path d="M315.557 99.8182C308.376 99.8182 302.194 98.3636 297.012 95.4546C291.861 92.5152 287.891 88.3636 285.103 83C282.315 77.6061 280.921 71.2273 280.921 63.8636C280.921 56.6818 282.315 50.3788 285.103 44.9546C287.891 39.5303 291.815 35.303 296.876 32.2727C301.967 29.2424 307.936 27.7273 314.785 27.7273C319.391 27.7273 323.679 28.4697 327.648 29.9546C331.648 31.4091 335.133 33.6061 338.103 36.5455C341.103 39.4849 343.436 43.1818 345.103 47.6364C346.77 52.0606 347.603 57.2424 347.603 63.1818V68.5H288.648V56.5H329.376C329.376 53.7121 328.77 51.2424 327.557 49.0909C326.345 46.9394 324.664 45.2576 322.512 44.0455C320.391 42.803 317.921 42.1818 315.103 42.1818C312.164 42.1818 309.558 42.8636 307.285 44.2273C305.042 45.5606 303.285 47.3636 302.012 49.6364C300.739 51.8788 300.088 54.3788 300.057 57.1364V68.5455C300.057 72 300.694 74.9849 301.967 77.5C303.27 80.0152 305.103 81.9546 307.467 83.3182C309.83 84.6818 312.633 85.3636 315.876 85.3636C318.027 85.3636 319.997 85.0606 321.785 84.4546C323.573 83.8485 325.103 82.9394 326.376 81.7273C327.648 80.5152 328.618 79.0303 329.285 77.2727L347.194 78.4546C346.285 82.7576 344.421 86.5152 341.603 89.7273C338.815 92.9091 335.209 95.3939 330.785 97.1818C326.391 98.9394 321.315 99.8182 315.557 99.8182Z" fill="#262626"/>
<path d="M354.239 98.4546V28.6364H373.012V40.8182H373.739C375.012 36.4849 377.148 33.2121 380.148 31C383.148 28.7576 386.603 27.6364 390.512 27.6364C391.482 27.6364 392.527 27.697 393.648 27.8182C394.77 27.9394 395.754 28.1061 396.603 28.3182V45.5C395.694 45.2273 394.436 44.9849 392.83 44.7727C391.224 44.5606 389.754 44.4546 388.421 44.4546C385.573 44.4546 383.027 45.0758 380.785 46.3182C378.573 47.5303 376.815 49.2273 375.512 51.4091C374.239 53.5909 373.603 56.1061 373.603 58.9546V98.4546H354.239Z" fill="#262626"/>
<path d="M400.614 98.4546V63.5455V28.6364H419.978V98.4546H400.614Z" fill="#262626"/>
<path d="M464.035 28.6364V43.1818H430.807V28.6364H464.035ZM430.807 98.4546V23.5909C430.807 18.5303 431.792 14.3333 433.762 11C435.762 7.66667 438.489 5.16667 441.944 3.5C445.398 1.83333 449.323 1 453.717 1C456.686 1 459.398 1.22727 461.853 1.68182C464.338 2.13637 466.186 2.54546 467.398 2.9091L463.944 17.4546C463.186 17.2121 462.247 16.9849 461.126 16.7727C460.035 16.5606 458.914 16.4546 457.762 16.4546C454.914 16.4546 452.929 17.1212 451.808 18.4546C450.686 19.7576 450.126 21.5909 450.126 23.9546V98.4546H430.807Z" fill="#262626"/>
<path d="M485.819 124.636C483.364 124.636 481.061 124.439 478.91 124.045C476.789 123.682 475.031 123.212 473.637 122.636L478.001 108.182C480.273 108.879 482.319 109.258 484.137 109.318C485.986 109.379 487.576 108.955 488.91 108.045C490.273 107.136 491.379 105.591 492.228 103.409L493.364 100.455L480.842 64.5455L468.319 28.6364H488.682L503.137 79.9091H503.864L518.455 28.6364H538.955L511.819 106C510.516 109.758 508.743 113.03 506.501 115.818C504.289 118.636 501.486 120.803 498.092 122.318C494.698 123.864 490.607 124.636 485.819 124.636Z" fill="#262626"/>
<path d="M410.021 18.8526C406.204 18.8526 402.929 23.4344 400.197 20.8526C397.504 18.2299 402.197 15.0949 402.197 11.4477C402.197 7.84143 397.504 4.74744 400.197 2.1657C402.929 -0.45703 406.204 4.16569 410.021 4.16569C413.839 4.16569 417.093 -0.45703 419.786 2.1657C422.518 4.74744 417.786 7.84145 417.786 11.4477C417.786 15.0949 422.518 18.2299 419.786 20.8526C417.093 23.4344 413.839 18.8526 410.021 18.8526Z" fill="#262626"/>
</svg>
