<svg width="554" height="154" viewBox="0 0 554 154" fill="none" xmlns="http://www.w3.org/2000/svg">
<path d="M42.6371 47.6364V62.1818H8.00078L8.0007 47.6364H42.6371ZM8.0007 30.9091H27.3643V96C27.3643 97.7879 27.6371 99.1818 28.1825 100.182C28.728 101.152 29.4855 101.833 30.4552 102.227C31.4552 102.621 32.6068 102.818 33.9098 102.818C34.8189 102.818 35.728 102.742 36.6371 102.591C37.5462 102.409 38.2431 102.273 38.728 102.182L41.7734 116.591C40.8037 116.894 39.4401 117.242 37.6825 117.636C35.9249 118.061 33.7886 118.318 31.2734 118.409C26.6068 118.591 22.5158 117.97 19.0007 116.545C15.5158 115.121 12.8037 112.909 10.8643 109.909C8.92494 106.909 7.9704 103.121 8.0007 98.5455V30.9091Z" fill="#262626"/>
<path d="M77.9098 118.818C70.8492 118.818 64.7431 117.318 59.5916 114.318C54.4704 111.288 50.5158 107.076 47.728 101.682C44.9401 96.2576 43.5462 89.9697 43.5462 82.8182C43.5462 75.6061 44.9401 69.303 47.728 63.9091C50.5158 58.4849 54.4704 54.2727 59.5916 51.2727C64.7431 48.2424 70.8492 46.7273 77.9098 46.7273C84.9704 46.7273 91.0613 48.2424 96.1825 51.2727C101.334 54.2727 105.304 58.4849 108.092 63.9091C110.879 69.303 112.273 75.6061 112.273 82.8182C112.273 89.9697 110.879 96.2576 108.092 101.682C105.304 107.076 101.334 111.288 96.1825 114.318C91.0613 117.318 84.9704 118.818 77.9098 118.818ZM78.0007 103.818C81.2128 103.818 83.8946 102.909 86.0462 101.091C88.1977 99.2424 89.8189 96.7273 90.9098 93.5455C92.031 90.3636 92.5916 86.7424 92.5916 82.6818C92.5916 78.6212 92.031 75 90.9098 71.8182C89.8189 68.6364 88.1977 66.1212 86.0462 64.2727C83.8946 62.4242 81.2128 61.5 78.0007 61.5C74.7583 61.5 72.031 62.4242 69.8189 64.2727C67.6371 66.1212 65.9855 68.6364 64.8643 71.8182C63.7734 75 63.228 78.6212 63.228 82.6818C63.228 86.7424 63.7734 90.3636 64.8643 93.5455C65.9855 96.7273 67.6371 99.2424 69.8189 101.091C72.031 102.909 74.7583 103.818 78.0007 103.818Z" fill="#262626"/>
<path d="M117.864 143.636V47.6364H136.955V59.3636H137.819C138.667 57.4849 139.895 55.5758 141.501 53.6364C143.137 51.6667 145.258 50.0303 147.864 48.7273C150.501 47.3939 153.773 46.7273 157.683 46.7273C162.773 46.7273 167.47 48.0606 171.773 50.7273C176.076 53.3636 179.516 57.3485 182.092 62.6818C184.667 67.9849 185.955 74.6364 185.955 82.6364C185.955 90.4242 184.698 97 182.183 102.364C179.698 107.697 176.304 111.742 172.001 114.5C167.728 117.227 162.94 118.591 157.637 118.591C153.879 118.591 150.683 117.97 148.046 116.727C145.44 115.485 143.304 113.924 141.637 112.045C139.97 110.136 138.698 108.212 137.819 106.273H137.228V143.636H117.864ZM136.819 82.5455C136.819 86.697 137.395 90.3182 138.546 93.4091C139.698 96.5 141.364 98.9091 143.546 100.636C145.728 102.333 148.379 103.182 151.501 103.182C154.652 103.182 157.319 102.318 159.501 100.591C161.683 98.8333 163.334 96.4091 164.455 93.3182C165.607 90.197 166.183 86.6061 166.183 82.5455C166.183 78.5152 165.622 74.9697 164.501 71.9091C163.379 68.8485 161.728 66.4546 159.546 64.7273C157.364 63 154.683 62.1364 151.501 62.1364C148.349 62.1364 145.683 62.9697 143.501 64.6364C141.349 66.303 139.698 68.6667 138.546 71.7273C137.395 74.7879 136.819 78.3939 136.819 82.5455Z" fill="#262626"/>
<path d="M246.955 67.5455L229.228 68.6364C228.925 67.1212 228.273 65.7576 227.273 64.5455C226.273 63.303 224.955 62.3182 223.319 61.5909C221.713 60.8333 219.789 60.4546 217.546 60.4546C214.546 60.4546 212.016 61.0909 209.955 62.3636C207.895 63.6061 206.864 65.2727 206.864 67.3636C206.864 69.0303 207.531 70.4394 208.864 71.5909C210.198 72.7424 212.486 73.6667 215.728 74.3636L228.364 76.9091C235.152 78.303 240.213 80.5455 243.546 83.6364C246.879 86.7273 248.546 90.7879 248.546 95.8182C248.546 100.394 247.198 104.409 244.501 107.864C241.834 111.318 238.167 114.015 233.501 115.955C228.864 117.864 223.516 118.818 217.455 118.818C208.213 118.818 200.849 116.894 195.364 113.045C189.91 109.167 186.713 103.894 185.773 97.2273L204.819 96.2273C205.395 99.0455 206.789 101.197 209.001 102.682C211.213 104.136 214.046 104.864 217.501 104.864C220.895 104.864 223.622 104.212 225.683 102.909C227.773 101.576 228.834 99.8636 228.864 97.7727C228.834 96.0152 228.092 94.5758 226.637 93.4546C225.183 92.303 222.94 91.4243 219.91 90.8182L207.819 88.4091C201.001 87.0455 195.925 84.6818 192.592 81.3182C189.289 77.9546 187.637 73.6667 187.637 68.4546C187.637 63.9697 188.849 60.1061 191.273 56.8636C193.728 53.6212 197.167 51.1212 201.592 49.3636C206.046 47.6061 211.258 46.7273 217.228 46.7273C226.046 46.7273 232.986 48.5909 238.046 52.3182C243.137 56.0455 246.107 61.1212 246.955 67.5455Z" fill="#262626"/>
<path d="M287.637 47.6364V62.1818H253.376V47.6364H287.637ZM253.376 30.9091H272.739V96C272.739 97.7879 273.012 99.1818 273.557 100.182C274.103 101.152 274.861 101.833 275.83 102.227C276.83 102.621 277.982 102.818 279.285 102.818C280.194 102.818 281.103 102.742 282.012 102.591C282.921 102.409 283.618 102.273 284.103 102.182L287.148 116.591C286.179 116.894 284.815 117.242 283.057 117.636C281.3 118.061 279.164 118.318 276.648 118.409C271.982 118.591 267.891 117.97 264.376 116.545C260.891 115.121 258.179 112.909 256.239 109.909C254.3 106.909 253.345 103.121 253.376 98.5455V30.9091Z" fill="#262626"/>
<path d="M322.557 118.818C315.376 118.818 309.194 117.364 304.012 114.455C298.861 111.515 294.891 107.364 292.103 102C289.315 96.6061 287.921 90.2273 287.921 82.8636C287.921 75.6818 289.315 69.3788 292.103 63.9546C294.891 58.5303 298.815 54.303 303.876 51.2727C308.967 48.2424 314.936 46.7273 321.785 46.7273C326.391 46.7273 330.679 47.4697 334.648 48.9546C338.648 50.4091 342.133 52.6061 345.103 55.5455C348.103 58.4849 350.436 62.1818 352.103 66.6364C353.77 71.0606 354.603 76.2424 354.603 82.1818V87.5H295.648V75.5H336.376C336.376 72.7121 335.77 70.2424 334.557 68.0909C333.345 65.9394 331.664 64.2576 329.512 63.0455C327.391 61.803 324.921 61.1818 322.103 61.1818C319.164 61.1818 316.558 61.8636 314.285 63.2273C312.042 64.5606 310.285 66.3636 309.012 68.6364C307.739 70.8788 307.088 73.3788 307.057 76.1364V87.5455C307.057 91 307.694 93.9849 308.967 96.5C310.27 99.0152 312.103 100.955 314.467 102.318C316.83 103.682 319.633 104.364 322.876 104.364C325.027 104.364 326.997 104.061 328.785 103.455C330.573 102.848 332.103 101.939 333.376 100.727C334.648 99.5152 335.618 98.0303 336.285 96.2727L354.194 97.4546C353.285 101.758 351.421 105.515 348.603 108.727C345.815 111.909 342.209 114.394 337.785 116.182C333.391 117.939 328.315 118.818 322.557 118.818Z" fill="#262626"/>
<path d="M361.239 117.455V47.6364H380.012V59.8182H380.739C382.012 55.4849 384.148 52.2121 387.148 50C390.148 47.7576 393.603 46.6364 397.512 46.6364C398.482 46.6364 399.527 46.697 400.648 46.8182C401.77 46.9394 402.754 47.1061 403.603 47.3182V64.5C402.694 64.2273 401.436 63.9849 399.83 63.7727C398.224 63.5606 396.754 63.4546 395.421 63.4546C392.573 63.4546 390.027 64.0758 387.785 65.3182C385.573 66.5303 383.815 68.2273 382.512 70.4091C381.239 72.5909 380.603 75.1061 380.603 77.9546V117.455H361.239Z" fill="#262626"/>
<path d="M407.614 117.455V82.5455V47.6364H426.978V117.455H407.614Z" fill="#262626"/>
<path d="M471.035 47.6364V62.1818H437.807V47.6364H471.035ZM437.807 117.455V42.5909C437.807 37.5303 438.792 33.3333 440.762 30C442.762 26.6667 445.489 24.1667 448.944 22.5C452.398 20.8333 456.323 20 460.717 20C463.686 20 466.398 20.2273 468.853 20.6818C471.338 21.1364 473.186 21.5455 474.398 21.9091L470.944 36.4546C470.186 36.2121 469.247 35.9849 468.126 35.7727C467.035 35.5606 465.914 35.4546 464.762 35.4546C461.914 35.4546 459.929 36.1212 458.808 37.4546C457.686 38.7576 457.126 40.5909 457.126 42.9546V117.455H437.807Z" fill="#262626"/>
<path d="M492.819 143.636C490.364 143.636 488.061 143.439 485.91 143.045C483.789 142.682 482.031 142.212 480.637 141.636L485.001 127.182C487.273 127.879 489.319 128.258 491.137 128.318C492.986 128.379 494.576 127.955 495.91 127.045C497.273 126.136 498.379 124.591 499.228 122.409L500.364 119.455L487.842 83.5455L475.319 47.6364H495.682L510.137 98.9091H510.864L525.455 47.6364H545.955L518.819 125C517.516 128.758 515.743 132.03 513.501 134.818C511.289 137.636 508.486 139.803 505.092 141.318C501.698 142.864 497.607 143.636 492.819 143.636Z" fill="#262626"/>
<path d="M417.021 37.8526C413.204 37.8526 409.929 42.4344 407.197 39.8526C404.504 37.2299 409.197 34.0949 409.197 30.4477C409.197 26.8414 404.504 23.7474 407.197 21.1657C409.929 18.543 413.204 23.1657 417.021 23.1657C420.839 23.1657 424.093 18.543 426.786 21.1657C429.518 23.7474 424.786 26.8414 424.786 30.4477C424.786 34.0949 429.518 37.2299 426.786 39.8526C424.093 42.4344 420.839 37.8526 417.021 37.8526Z" fill="#262626"/>
</svg>
